<?xml version="1.0" standalone="no"?>
<!DOCTYPE svg PUBLIC "-//W3C//DTD SVG 20010904//EN"
 "http://www.w3.org/TR/2001/REC-SVG-20010904/DTD/svg10.dtd">
<svg version="1.0" xmlns="http://www.w3.org/2000/svg"
 width="240.000000pt" height="280.000000pt" viewBox="0 0 240.000000 280.000000"
 preserveAspectRatio="xMidYMid meet">

<g transform="translate(0.000000,280.000000) scale(0.100000,-0.100000)"
fill="#000000" stroke="none">
<path d="M30 1390 l0 -1370 1170 0 1170 0 0 1370 0 1370 -1170 0 -1170 0 0
-1370z m2112 643 c2 -280 0 -515 -4 -523 -5 -10 -7 -7 -8 10 0 14 -7 53 -15
85 -68 263 -312 440 -658 475 -395 40 -740 -137 -845 -434 -21 -60 -26 -90
-26 -191 -1 -100 3 -131 22 -190 32 -94 64 -148 135 -222 139 -145 321 -213
574 -213 183 0 329 41 457 129 l46 32 0 -139 c0 -94 -5 -155 -15 -189 -34
-113 -123 -200 -254 -245 -87 -30 -292 -33 -386 -4 -126 38 -221 113 -246 195
l-12 41 -154 0 -153 0 0 -33 c0 -97 57 -224 138 -309 l55 -58 -266 0 -267 0 0
1145 0 1145 940 0 940 0 2 -507z m-624 -258 c137 -32 252 -121 286 -222 20
-60 20 -146 0 -206 -32 -94 -142 -183 -269 -218 -67 -19 -284 -19 -350 0 -181
51 -288 170 -288 322 0 155 115 278 300 323 77 19 243 19 321 1z m622 -1305
l0 -220 -116 0 -116 0 63 68 c90 95 159 245 159 344 0 15 2 28 5 28 3 0 5 -99
5 -220z"/>
</g>
</svg>
